# xmcd CD database file
# Generated: Mon Jun 23 10:23:30 2003 by KSCD
# 
# Track frame offsets:
#       150
#       21938
#       39903
#       58053
#       69700
#       93274
#       105901
#       123545
#       135243
#       137864
#       161758
#       185838
#       204965
#       223356
#       239707
#
# Disc length: 3484 seconds
#
# Revision: 1
# Processed by: cddbd v1.4PL0 Copyright (c) Steve Scherf et al.
# Submitted via: Kscd 1.3.3
#
DISCID=e00d9a0f
DTITLE=ZZ Top - XXX
DYEAR=1900
DGENRE=
TTITLE0=Poke Chop Sandwich  
TTITLE1=Crucifixx-A-Flatt  
TTITLE2=Fearless Boogie
TTITLE3=36-22-36
TTITLE4=Made Into A Movie
TTITLE5=Beatbox
TTITLE6=Trippin'
TTITLE7=Dreadmonboogaloo
TTITLE8=Live Intro By Ross Mitchell
TTITLE9=Sinpusher
TTITLE10=(Let Me Be Your) Teddy Bear
TTITLE11=Hey Mr. Millionaire
TTITLE12=Belt Buckle
TTITLE13=Gun Love
TTITLE14=Viva Las Vegas
EXTD=
EXTT0=
EXTT1=
EXTT2=
EXTT3=
EXTT4=
EXTT5=
EXTT6=
EXTT7=
EXTT8=
EXTT9=
EXTT10=
EXTT11=
EXTT12=
EXTT13=
EXTT14=
PLAYORDER=
